<svg width="168" height="168" viewBox="-52 598 168 168" xmlns="http://www.w3.org/2000/svg" xmlns:xlink="http://www.w3.org/1999/xlink" version="1.2" baseProfile="tiny">
    <g>
        <rect x="-52" y="598"  width="168" height="168" rx="15" ry="15" fill="#f8f9f9" />
        <path fill="#4c566a" stroke-width="0" d="M5.74837 741.737 C5.74837 741.737 5.74837 741.737 5.74837 741.737 C9.55785 740.256 13.6741 739.4 17.1768 737.293 C19.6433 735.81 21.3582 733.328 23.2849 731.19 C24.3896 729.964 25.438 728.662 26.2492 727.225 C27.0772 725.758 27.739 724.178 28.1629 722.548 C29.2805 718.25 31.0051 713.939 30.858 709.5 C30.6663 703.717 28.1432 698.242 27.1681 692.538 C27.1091 692.193 27.5111 691.883 27.8171 691.714 C31.0001 689.955 34.1809 688.15 37.5564 686.796 C41.434 685.24 45.3754 683.64 49.5061 683.014 C53.7873 682.365 58.174 682.757 62.4965 683.015 C63.5451 683.078 64.4513 683.909 65.5001 683.969 C66.1392 684.005 66.6635 683.188 67.2957 683.288 C67.9811 683.397 68.3028 684.344 68.9741 684.52 C69.4979 684.658 70.0379 683.982 70.5547 684.144 C72.6163 684.79 74.425 686.08 76.4397 686.86 C76.7867 686.995 77.2146 687.004 77.5563 686.856 C78.5278 686.436 79.676 686.083 80.2686 685.206 C81.1932 683.838 82.0804 682.145 81.8455 680.51 C81.5854 678.701 80.138 677.236 78.9262 675.866 C77.2139 673.932 75.487 671.805 73.1558 670.691 C69.8494 669.111 66.1274 668.485 62.4933 668.014 C59.191 667.586 55.8263 667.797 52.5035 668.015 C51.7878 668.062 51.2162 668.764 50.4999 668.799 C50.0946 668.819 49.8604 668.093 49.4611 668.165 C46.109 668.77 42.8082 669.684 39.5802 670.772 C37.1555 671.589 34.9775 673.042 32.5538 673.862 C31.8971 674.084 31.1517 673.998 30.4741 673.852 C30.0913 673.769 29.8361 673.007 29.4959 673.201 C29.1751 673.384 29.9795 674.037 29.709 674.288 C28.5157 675.397 27.0239 676.157 25.5556 676.862 C25.0387 677.11 24.3665 676.847 23.8519 677.1 C22.9753 677.531 22.4629 678.668 21.5039 678.853 C21.0495 678.94 22.1173 677.831 21.7985 677.496 C21.4927 677.174 20.9407 677.863 20.5016 677.798 C20.1724 677.749 19.9375 677.432 19.7122 677.187 C19.0655 676.484 18.4107 675.775 17.8984 674.969 C16.8944 673.39 16.2163 671.616 15.1799 670.058 C13.8285 668.026 12.0777 666.277 10.7532 664.228 C10.0093 663.077 9.69083 661.694 9.00631 660.507 C6.48277 656.131 3.58328 651.976 1.13824 647.556 C0.860809 647.054 1.19415 646.345 0.9002 645.853 C0.476418 645.143 -0.64246 644.933 -0.898308 644.147 C-1.27745 642.983 -1.21845 641.642 -0.85144 640.474 C-0.536373 639.471 0.198292 638.576 1.04684 637.955 C2.68557 636.757 4.48539 635.664 6.44606 635.138 C8.092 634.696 9.88247 634.826 11.5586 635.134 C12.8723 635.376 14.0942 636.04 15.2251 636.751 C16.0936 637.296 16.5201 638.473 17.4737 638.851 C18.4189 639.226 19.5222 639.025 20.5239 638.851 C20.8545 638.793 21.0887 638.463 21.2828 638.19 C21.8753 637.354 22.5912 636.542 22.8622 635.554 C23.134 634.564 23.3376 633.378 22.8514 632.474 C22.0222 630.931 20.6104 629.728 19.184 628.712 C17.1392 627.255 14.8169 626.225 12.5541 625.138 C12.2335 624.984 11.8498 625.014 11.4942 625.015 C10.8193 625.018 10.1267 624.977 9.47385 625.148 C9.09594 625.246 8.89054 625.796 8.4999 625.799 C8.09415 625.803 7.86258 625.106 7.4611 625.165 C5.39201 625.468 3.40079 626.183 1.41463 626.837 C-0.418808 627.441 -2.29074 628.006 -3.98315 628.935 C-5.50705 629.771 -6.95195 630.813 -8.14227 632.08 C-9.0644 633.061 -9.65553 634.324 -10.2036 635.554 C-10.9039 637.125 -11.5854 638.742 -11.8676 640.439 C-12.1476 642.123 -12.3245 643.916 -11.8676 645.561 C-10.7267 649.668 -8.33809 653.353 -7.14386 657.445 C-6.94211 658.137 -7.96278 658.803 -7.79854 659.504 C-7.71433 659.864 -6.96158 659.019 -6.71152 659.291 C-5.29359 660.831 -4.08212 662.6 -3.20072 664.499 C-3.03711 664.852 -3.72725 665.102 -3.84258 665.473 C-3.94667 665.808 -4.11435 666.319 -3.83019 666.525 C-3.52171 666.748 -3.03222 666.085 -2.71196 666.291 C-2.13166 666.664 -1.88728 667.401 -1.54073 667.998 C-0.694672 669.455 0.197262 670.896 0.861713 672.444 C1.08945 672.975 0.819427 673.657 1.1039 674.16 C1.4706 674.807 2.39493 675.036 2.71064 675.71 C2.84404 675.995 2.03537 676.239 2.20256 676.505 C3.0042 677.782 4.44801 678.561 5.28679 679.814 C6.68304 681.9 7.80756 684.164 8.8561 686.445 C9.00721 686.774 9.08863 687.273 8.83416 687.53 C8.50656 687.861 7.93374 687.907 7.4726 687.843 C7.08695 687.788 6.77448 686.929 6.49594 687.202 C6.17791 687.512 7.02377 688.117 6.79932 688.501 C6.10653 689.685 5.06722 690.663 3.98109 691.502 C3.57317 691.818 2.98441 691.905 2.47267 691.843 C2.08598 691.796 1.77538 690.93 1.49594 691.202 C1.17755 691.511 1.86258 692.059 1.79784 692.498 C1.7496 692.826 1.45152 693.081 1.1892 693.282 C0.00873947 694.189 -1.12163 695.236 -2.49935 695.799 C-2.85927 695.947 -3.1195 695.278 -3.5006 695.201 C-3.68349 695.164 -3.84156 695.368 -3.97353 695.5 C-4.27905 695.806 -4.75058 696.07 -4.79933 696.499 C-4.8432 696.886 -4.05622 697.14 -4.20068 697.5 C-4.53381 698.333 -5.36607 698.866 -6.0001 699.5 C-6.46772 699.968 -6.86264 700.621 -7.49944 700.799 C-7.87385 700.904 -8.14063 700.054 -8.50058 700.201 C-9.33567 700.542 -10.0866 701.223 -10.4996 702.025 C-10.7298 702.472 -9.94837 703.069 -10.2013 703.503 C-10.9599 704.807 -12.4174 705.581 -13.2865 706.814 C-14.1404 708.026 -14.8261 709.371 -15.3215 710.768 C-16.6818 714.604 -17.9487 718.489 -18.8352 722.461 C-18.9236 722.857 -18.1578 723.067 -18.157 723.473 C-18.1554 724.195 -18.9686 724.825 -18.8288 725.534 C-18.3035 728.196 -17.4023 730.802 -16.2283 733.249 C-15.4998 734.767 -14.3816 736.095 -13.1901 737.285 C-12.3365 738.138 -11.2462 738.731 -10.178 739.292 C-8.35174 740.251 -6.52023 741.272 -4.53422 741.829 C-4.1457 741.938 -3.93064 741.141 -3.52743 741.157 C-2.4809 741.197 -1.54178 741.919 -0.496506 741.985 M5.51781 725.791 C5.51781 725.791 5.51781 725.791 5.51781 725.791 C5.18001 725.593 4.89511 725.172 4.50439 725.197 C3.78692 725.243 3.21124 725.907 2.49648 725.985 C1.16263 726.13 -0.231926 726.204 -1.52632 725.851 C-2.12897 725.687 -2.72389 725.138 -2.85142 724.526 C-3.19716 722.868 -3.29436 721.083 -2.86221 719.446 C-2.41165 717.739 -1.25587 716.293 -0.288708 714.816 C0.69556 713.313 1.77448 711.863 2.97703 710.528 C4.81407 708.488 6.68682 706.455 8.80981 704.715 C10.4868 703.341 12.1749 701.625 14.3088 701.241 C15.1938 701.082 15.7012 702.562 15.8616 703.446 C16.2806 705.758 16.2827 708.163 15.986 710.493 C15.678 712.913 15.0389 715.318 14.0656 717.555 C13.3253 719.256 12.2522 720.856 10.9162 722.144 "/>
    </g>
</svg>